<svg width="21" height="16" viewBox="0 0 21 16" fill="none" xmlns="http://www.w3.org/2000/svg">
<path fill-rule="evenodd" clip-rule="evenodd" d="M5.81366 10.5839H18.5839C18.6335 10.5839 18.6832 10.5839 18.7329 10.5342H18.7826C18.8323 10.5342 18.8323 10.4845 18.8323 10.4845C18.8323 10.4845 18.8323 10.4348 18.882 10.4348L18.9317 10.3851V10.3354C18.9317 10.3354 18.9317 10.3354 18.9317 10.2857L20.4224 3.03106V2.98137C20.4224 2.98137 20.4224 2.98137 20.4224 2.93168C20.4224 2.93168 20.4224 2.93168 20.4224 2.88199C20.4224 2.8323 20.4224 2.8323 20.4224 2.8323C20.4224 2.8323 20.4224 2.78261 20.3727 2.78261C20.3727 2.78261 20.3727 2.73292 20.323 2.73292L20.2733 2.68323L20.2236 2.63354C20.2236 2.63354 20.1739 2.63354 20.1739 2.58385C20.1739 2.58385 20.1739 2.58385 20.1242 2.58385H20.0745C20.0745 2.58385 20.0745 2.58385 20.0248 2.58385H15.8012H14.7578H4.57143L4.07453 0.298137C4.07453 0.298137 4.07453 0.298137 4.07453 0.248447C4.07453 0.198758 4.07453 0.198758 4.02484 0.198758C4.02484 0.198758 4.02484 0.149068 3.97516 0.149068L3.92547 0.0993789L3.87578 0.0496894C3.87578 0.0496894 3.82609 0.0496894 3.82609 0C3.7764 0 3.7764 0 3.72671 0C3.72671 0 3.72671 0 3.67702 0H0.397516C0.198758 0 0 0.149068 0 0.397516C0 0.645963 0.149068 0.795031 0.397516 0.795031H3.37888L5.31677 9.93789C4.47205 10.1366 3.82609 10.882 3.82609 11.8261C3.82609 12.8696 4.67081 13.764 5.76398 13.764H6.70807C6.55901 13.9627 6.50932 14.2112 6.50932 14.5093C6.50932 15.354 7.15528 16 8 16C8.84472 16 9.49068 15.354 9.49068 14.5093C9.49068 14.2609 9.3913 13.9627 9.29193 13.764H15.0062C14.8571 13.9627 14.8075 14.2112 14.8075 14.5093C14.8075 15.354 15.4534 16 16.2981 16C17.1429 16 17.7888 15.354 17.7888 14.5093C17.7888 14.2609 17.6894 13.9627 17.5901 13.764H18.5342C18.7329 13.764 18.9317 13.6149 18.9317 13.3665C18.9317 13.118 18.7826 12.9689 18.5342 12.9689H5.81366C5.1677 12.9689 4.62112 12.4224 4.62112 11.7764C4.62112 11.1304 5.1677 10.5839 5.81366 10.5839ZM14.8075 3.32919H15.8509H19.6273L18.2857 9.83851H6.1118L4.7205 3.32919H14.8075ZM8.79503 14.4596C8.79503 14.8571 8.44721 15.205 8.04969 15.205C7.65217 15.205 7.30435 14.8571 7.30435 14.4596C7.30435 14.0621 7.65217 13.7143 8.04969 13.7143C8.44721 13.7143 8.79503 14.0621 8.79503 14.4596ZM17.0932 14.4596C17.0932 14.8571 16.7453 15.205 16.3478 15.205C15.9503 15.205 15.6025 14.8571 15.6025 14.4596C15.6025 14.0621 15.9503 13.7143 16.3478 13.7143C16.7453 13.7143 17.0932 14.0621 17.0932 14.4596Z" fill="url(#paint0_radial_0_651)"/>
<defs>
<radialGradient id="paint0_radial_0_651" cx="0" cy="0" r="1" gradientUnits="userSpaceOnUse" gradientTransform="translate(16.3359 12.248) rotate(-143.645) scale(14.6092 7.55667)">
<stop stop-color="#7E00E8"/>
<stop offset="0.401611" stop-color="#FF1876"/>
<stop offset="1" stop-color="#BB0CB2"/>
</radialGradient>
</defs>
</svg>
